# xmcd
#
# Track frame offsets:
#	150
#	13711
#	27203
#	38401
#	50883
#	62806
#	76073
#	89410
#	102993
#	115983
#	129558
#	142116
#	156163
#	167119
#	180234
#	192574
#	204351
#	220498
#	233655
#	248027
#	260687
#	274999
#	285359
#
# Disc length: 3949 seconds
#
# Revision: 1
# Processed by: cddbd v1.5.2PL0 Copyright (c) Steve Scherf et al.
# Submitted via: EZCDAudioConverter 2.8.1.1
#
DISCID=4b0f6b17
DTITLE=Howlin Wolf and Muddy Waters - Big Box Of Howlin' Wolf and Muddy Waters CD 
DTITLE=3
DYEAR=1900
DGENRE=Blues
TTITLE0=Howlin Wolf - The wolf is at your door
TTITLE1=Howlin Wolf - California blues No. 1
TTITLE2=Muddy Waters - Standin' here tremblin'
TTITLE3=Howlin Wolf - I better go now
TTITLE4=Howlin Wolf - Dorothy Mae
TTITLE5=Muddy Waters - Louisiana blues
TTITLE6=Howlin Wolf - Baby how long
TTITLE7=Howlin Wolf - Just my kind
TTITLE8=Muddy Waters - Stuff you gotta watch
TTITLE9=Howlin Wolf - My last affair
TTITLE10=Howlin Wolf - Streamline woman
TTITLE11=Muddy Waters - I'm ready
TTITLE12=Howlin Wolf - Come to my baby
TTITLE13=Howlin Wolf - I'm the wolf
TTITLE14=Muddy Waters - Trouble no more
TTITLE15=Howlin Wolf - Who will be next
TTITLE16=Howlin Wolf - Bluebird
TTITLE17=Muddy Waters - My mojo working
TTITLE18=Howlin Wolf - Worried all the time
TTITLE19=Howlin Wolf - Howlin' blues
TTITLE20=Muddy Waters - Take the bitter with the sweet
TTITLE21=Howlin Wolf - All night boogie
TTITLE22=Howlin Wolf - My people's gone
EXTD=
EXTT0=
EXTT1=
EXTT2=
EXTT3=
EXTT4=
EXTT5=
EXTT6=
EXTT7=
EXTT8=
EXTT9=
EXTT10=
EXTT11=
EXTT12=
EXTT13=
EXTT14=
EXTT15=
EXTT16=
EXTT17=
EXTT18=
EXTT19=
EXTT20=
EXTT21=
EXTT22=
PLAYORDER=
